<svg width="35" height="36" viewBox="0 0 35 36" fill="none" xmlns="http://www.w3.org/2000/svg">
<g id="close">
<path id="Vector" d="M26.1135 7.84875L17.5002 16.462L8.88693 7.84875C8.6587 7.64386 8.4024 7.54141 8.11802 7.54141C7.83365 7.54141 7.58281 7.64969 7.36552 7.86626C7.14823 8.08282 7.03995 8.33365 7.04068 8.61875C7.04141 8.90386 7.14386 9.16016 7.34802 9.38766L15.9613 18.0009L7.34802 26.6142C7.05198 26.9103 6.955 27.2635 7.05709 27.6741C7.15917 28.0846 7.41 28.3409 7.80958 28.443C8.20917 28.5451 8.56792 28.4481 8.88583 28.152L17.4991 19.5388L26.1124 28.152C26.3406 28.3569 26.5969 28.4594 26.8813 28.4594C27.1657 28.4594 27.4165 28.3511 27.6338 28.1345C27.8511 27.918 27.9594 27.6671 27.9586 27.382C27.9579 27.0969 27.8555 26.8406 27.6513 26.6131L19.038 17.9998L27.6513 9.38657C27.9473 9.09053 28.0443 8.73724 27.9422 8.32672C27.8402 7.9162 27.5839 7.6599 27.1733 7.55782C26.7628 7.45573 26.4095 7.55271 26.1135 7.84875Z" fill="#606266"/>
</g>
</svg>
