<svg width="100" height="101" viewBox="0 0 100 101" fill="none" xmlns="http://www.w3.org/2000/svg">
<path d="M24 42.5C29.5228 42.5 34 38.0228 34 32.5C34 26.9772 29.5228 22.5 24 22.5M24 42.5C18.4772 42.5 14 38.0228 14 32.5C14 26.9772 18.4772 22.5 24 22.5M24 42.5V86.5M24 22.5V14.5" stroke="#FC3E24" stroke-width="3" stroke-linecap="round" stroke-linejoin="round"/>
<path d="M50 78.5C55.5228 78.5 60 74.0228 60 68.5C60 62.9772 55.5228 58.5 50 58.5M50 78.5C44.4772 78.5 40 74.0228 40 68.5C40 62.9772 44.4772 58.5 50 58.5M50 78.5V86.5M50 58.5V14.5" stroke="#FC3E24" stroke-width="3" stroke-linecap="round"/>
<path d="M76 54.5C81.5228 54.5 86 50.0228 86 44.5C86 38.9772 81.5228 34.5 76 34.5M76 54.5C70.4772 54.5 66 50.0228 66 44.5C66 38.9772 70.4772 34.5 76 34.5M76 54.5V86.5M76 34.5V14.5" stroke="#FC3E24" stroke-width="3" stroke-linecap="round"/>
</svg>
