<svg width="64" height="64" viewBox="0 0 64 64" fill="none" xmlns="http://www.w3.org/2000/svg">
<g id="PT_Logo_Short_3_Color-RGB">
<path id="Path_1" d="M0 51.2034C0 56.8029 0 59.9306 2.03361 61.9653C4.06723 64 7.19328 64 12.7815 64H51.1933C56.7899 64 59.916 64 61.9412 61.9653C63.9664 59.9306 63.9748 56.8029 63.9748 51.2034V12.7966C63.9748 7.19706 63.9748 4.06936 61.9412 2.03468C59.9076 0 56.7815 0 51.1933 0H12.8151C7.21849 0.00840778 4.09244 0.00840777 2.05882 2.04309C0.0252101 4.07777 0.0336134 7.19706 0.0336134 12.7966V51.2034H0Z" fill="#F82619"/>
<path id="Path_2" d="M24.8127 20.9013C22.5438 20.8256 20.3505 21.7252 18.779 23.3732H18.2748V21.3132H12.6194V50.917H18.2748V40.6343H18.779C20.3589 42.2654 22.5438 43.1651 24.8127 43.1062C30.6278 43.1062 34.5942 38.4147 34.5942 32.0079C34.5942 25.6012 30.6194 20.9013 24.8043 20.9013H24.8127ZM23.5606 37.8513C20.4681 37.8513 18.2748 35.3795 18.2748 32.0079C18.2748 28.628 20.4933 26.1645 23.5606 26.1645C26.6278 26.1645 28.9051 28.6364 28.9051 32.0079C28.9051 35.3795 26.6866 37.8513 23.5606 37.8513ZM43.3169 26.5933V33.1262C43.3169 36.2202 44.6614 37.4394 47.6278 37.4394H52.0648V42.6942H46.5606C40.5269 42.6942 37.653 39.5665 37.653 33.782V13.082H43.3085V21.3048H52.0311V26.5597H43.3085V26.5933H43.3169Z" fill="#FCFCFC"/>
</g>
</svg>
