<svg width="80" height="81" viewBox="0 0 80 81" fill="none" xmlns="http://www.w3.org/2000/svg">
<g id="refresh">
<path id="Vector" d="M60.3125 62.6095C55.7808 66.6728 50.6375 69.1728 44.8825 70.1095C39.1275 71.0462 33.4892 70.3428 27.9675 67.9995C22.4458 65.4995 18.0842 61.8012 14.8825 56.9045C11.6808 52.0078 10.0533 46.5387 10 40.497H15C15.0517 45.757 16.4967 50.4703 19.335 54.637C22.1733 58.8037 26.0408 61.8503 30.9375 63.777C35.8342 65.652 40.7433 66.017 45.665 64.872C50.5867 63.727 54.8442 61.227 58.4375 57.372H51.1725C50.4425 57.372 49.8433 57.1378 49.375 56.6695C48.9067 56.2012 48.6725 55.6153 48.6725 54.912C48.6725 54.2087 48.9067 53.6228 49.375 53.1545C49.8433 52.6862 50.4425 52.4253 51.1725 52.372H62.8125C63.4892 52.4237 64.0625 52.6845 64.5325 53.1545C65.0025 53.6245 65.2633 54.1978 65.315 54.8745V66.5145C65.2633 67.2445 65.0025 67.8437 64.5325 68.312C64.0625 68.7803 63.4767 69.0145 62.775 69.0145C62.0733 69.0145 61.4875 68.7803 61.0175 68.312C60.5475 67.8437 60.3133 67.2445 60.315 66.5145V62.607L60.3125 62.6095ZM21.5625 23.6245H28.8275C29.5575 23.6245 30.1567 23.8587 30.625 24.327C31.0933 24.7953 31.3275 25.3812 31.3275 26.0845C31.3275 26.7878 31.0933 27.3737 30.625 27.842C30.1567 28.3103 29.5575 28.5712 28.8275 28.6245H17.1875C16.5108 28.5728 15.9375 28.312 15.4675 27.842C14.9975 27.372 14.7367 26.7987 14.685 26.122V14.482C14.7367 13.752 14.9975 13.1528 15.4675 12.6845C15.9375 12.2162 16.5233 11.982 17.225 11.982C17.9267 11.982 18.5125 12.2162 18.9825 12.6845C19.4525 13.1528 19.6867 13.752 19.685 14.482V18.3895C24.2167 14.3262 29.36 11.8262 35.115 10.8895C40.87 9.95284 46.5342 10.6562 52.1075 12.9995C57.6292 15.4995 61.9783 19.1978 65.155 24.0945C68.3317 28.9912 69.9467 34.4603 70 40.502H65C64.9483 35.242 63.5033 30.5287 60.665 26.362C57.8267 22.1953 53.9592 19.1487 49.0625 17.222C44.1658 15.347 39.2567 14.982 34.335 16.127C29.4133 17.272 25.1558 19.772 21.5625 23.627V23.6245Z" fill="#FC3E24"/>
</g>
</svg>
