<svg width="80" height="80" viewBox="0 0 80 80" fill="none" xmlns="http://www.w3.org/2000/svg">
<g id="setting">
<path id="Vector" d="M48.8276 5L66.1726 15L62.8126 20.86C63.9593 22.215 65.001 23.6992 65.9376 25.3125C66.8743 26.9258 67.656 28.5925 68.2826 30.3125H75.0026V50.3125H68.2826C67.0326 53.8025 65.2093 56.9533 62.8126 59.765L66.1726 65.625L48.8276 75.625L45.4676 69.765C41.821 70.4417 38.1751 70.4417 34.5301 69.765L31.1701 75.625L13.8251 65.625L17.1851 59.765C15.9868 58.3583 14.9318 56.8608 14.0201 55.2725C13.1084 53.6842 12.3401 52.0308 11.7151 50.3125H4.99512V30.3125H11.7151C12.9651 26.8225 14.7885 23.6717 17.1851 20.86L13.8251 15L31.1701 5L34.5301 10.86C38.1768 10.1833 41.8226 10.1833 45.4676 10.86L48.8276 5ZM50.7026 11.7975L49.7651 13.36L48.0451 16.4075L44.5301 15.7825C41.5084 15.2092 38.4876 15.2092 35.4676 15.7825L31.9526 16.4075L29.2951 11.7975L20.7001 16.7975L23.2776 21.4075L21.0126 24.065C19.0326 26.4083 17.5218 29.0383 16.4801 31.955L15.3076 35.315H9.99512V45.315H15.2301L16.4801 48.675C17.0018 50.185 17.6268 51.565 18.3551 52.815C19.0835 54.065 19.9693 55.315 21.0126 56.565L23.2776 59.2225L20.7001 63.8325L29.2951 68.8325L31.9526 64.2225L35.4676 64.8475C38.4893 65.4208 41.5101 65.4208 44.5301 64.8475L48.0451 64.2225L50.7026 68.8325L59.2976 63.8325L56.7201 59.2225L58.9851 56.565C60.9651 54.1683 62.476 51.5383 63.5176 48.675L64.6901 45.315H70.0026V35.315H64.7676L63.5176 31.955C63.0493 30.5483 62.4243 29.1808 61.6426 27.8525C60.861 26.5242 59.9751 25.2608 58.9851 24.0625L56.7201 21.405L59.2976 16.795L50.7026 11.7975ZM40.0001 22.8125C44.9484 22.9175 49.076 24.6233 52.3826 27.93C55.6893 31.2367 57.3951 35.3642 57.5001 40.3125C57.3951 45.2608 55.6893 49.3883 52.3826 52.695C49.076 56.0017 44.9484 57.7075 40.0001 57.8125C35.0518 57.7075 30.9243 56.0017 27.6176 52.695C24.3109 49.3883 22.6051 45.2608 22.5001 40.3125C22.6051 35.3642 24.3109 31.2367 27.6176 27.93C30.9243 24.6233 35.0518 22.9175 40.0001 22.8125ZM40.0001 27.8125C36.4585 27.9175 33.5159 29.1417 31.1726 31.485C28.8293 33.8283 27.6051 36.7708 27.5001 40.3125C27.6051 43.8542 28.8293 46.7967 31.1726 49.14C33.5159 51.4833 36.4585 52.7075 40.0001 52.8125C43.5418 52.7075 46.4843 51.4833 48.8276 49.14C51.171 46.7967 52.3951 43.8542 52.5001 40.3125C52.3951 36.7708 51.171 33.8283 48.8276 31.485C46.4843 29.1417 43.5418 27.9175 40.0001 27.8125Z" fill="#FC3E24"/>
</g>
</svg>
