<svg width="107" height="106" viewBox="0 0 107 106" fill="none" xmlns="http://www.w3.org/2000/svg">
<g id="takeaway-box">
<path id="Vector" d="M86.625 39.75H20.375V86.125H86.625V39.75ZM10.4375 33.125H96.5625V13.25H10.4375V33.125ZM93.25 39.75V89.4375C93.25 90.4047 92.9397 91.1986 92.3192 91.8192C91.6986 92.4397 90.9047 92.75 89.9375 92.75H17.0625C16.0953 92.75 15.3014 92.4397 14.6808 91.8192C14.0603 91.1986 13.75 90.4047 13.75 89.4375V39.75H7.125C6.15775 39.75 5.36385 39.4397 4.74331 38.8192C4.12277 38.1986 3.8125 37.4048 3.8125 36.4375V9.9375C3.8125 8.97025 4.12277 8.17635 4.74331 7.55581C5.36385 6.93527 6.15775 6.625 7.125 6.625H99.875C100.842 6.625 101.636 6.93527 102.257 7.55581C102.877 8.17635 103.188 8.97025 103.188 9.9375V36.4375C103.188 37.4048 102.877 38.1986 102.257 38.8192C101.636 39.4397 100.842 39.75 99.875 39.75H93.25ZM43.5625 53H63.4375C64.4048 53 65.1986 53.3103 65.8192 53.9308C66.4397 54.5514 66.75 55.3452 66.75 56.3125C66.75 57.2798 66.4397 58.0736 65.8192 58.6942C65.1986 59.3147 64.4048 59.625 63.4375 59.625H43.5625C42.5952 59.625 41.8014 59.3147 41.1808 58.6942C40.5603 58.0736 40.25 57.2798 40.25 56.3125C40.25 55.3452 40.5603 54.5514 41.1808 53.9308C41.8014 53.3103 42.5952 53 43.5625 53Z" fill="#19252F"/>
</g>
</svg>
