<svg width="116" height="116" viewBox="0 0 116 116" fill="none" xmlns="http://www.w3.org/2000/svg">
<g id="warning-outline">
<path id="Vector" d="M58 7.25055C72.2265 7.62758 84.0751 12.593 93.5458 22.1468C103.017 31.7006 107.939 43.6531 108.312 58.0044C107.939 72.3556 103.017 84.3082 93.5458 93.862C84.0751 103.416 72.2265 108.381 58 108.758C43.7735 108.381 31.9249 103.416 22.4542 93.862C12.9835 84.3082 8.06125 72.3556 7.6875 58.0044C8.06125 43.6531 12.9835 31.7006 22.4542 22.1468C31.9249 12.593 43.7735 7.62758 58 7.25055ZM58 101.508C70.2044 101.206 80.3675 96.9567 88.4894 88.7612C96.6112 80.5657 100.823 70.3134 101.125 58.0044C100.826 45.693 96.6136 35.4407 88.4894 27.2476C80.3651 19.0544 70.202 14.8056 58 14.5011C45.7956 14.8032 35.6325 19.052 27.5106 27.2476C19.3887 35.4431 15.1769 45.6954 14.875 58.0044C15.1745 70.3158 19.3864 80.5681 27.5106 88.7612C35.6349 96.9543 45.798 101.203 58 101.508ZM63.3906 81.5687C63.3164 83.0792 62.7737 84.3444 61.7627 85.3643C60.7516 86.3842 59.4974 86.8942 58 86.8942C56.5026 86.8942 55.2484 86.3842 54.2373 85.3643C53.2263 84.3444 52.7208 83.0792 52.7208 81.5687C52.7208 80.0581 53.2263 78.7929 54.2373 77.773C55.2484 76.7531 56.5026 76.2431 58 76.2431C59.4974 76.2431 60.7516 76.7531 61.7627 77.773C62.7737 78.7929 63.3164 80.0581 63.3906 81.5687ZM58 29.0022C59.0494 29.0022 59.9107 29.3418 60.5839 30.0209C61.2571 30.7 61.5938 31.5689 61.5938 32.6275V65.2549C61.5938 66.3135 61.2571 67.1824 60.5839 67.8615C59.9107 68.5406 59.0494 68.8802 58 68.8802C56.9506 68.8802 56.0893 68.5406 55.4161 67.8615C54.7429 67.1824 54.4062 66.3135 54.4062 65.2549V32.6275C54.4062 31.5689 54.7429 30.7 55.4161 30.0209C56.0893 29.3418 56.9506 29.0022 58 29.0022Z" fill="#19252F"/>
</g>
</svg>
