<svg width="80" height="80" viewBox="0 0 80 80" fill="none" xmlns="http://www.w3.org/2000/svg">
<g id="img-icons">
<path id="Polygon 34" d="M36.5137 14.1979C38.0429 11.4793 41.9571 11.4793 43.4863 14.1979L72.6469 66.039C74.1468 68.7054 72.2199 72 69.1606 72L10.8394 72C7.78009 72 5.85323 68.7054 7.35309 66.039L36.5137 14.1979Z" stroke="#FC3E24" stroke-width="4" stroke-linecap="round" stroke-linejoin="round"/>
<path id="!" d="M38.1015 33.92C38.1015 32.8596 38.9611 32 40.0215 32C41.0818 32 41.9415 32.8596 41.9415 33.92V51.0748C41.9415 52.1352 41.0818 52.9948 40.0215 52.9948C38.9611 52.9948 38.1015 52.1352 38.1015 51.0748V33.92ZM39.6006 61.3843C38.496 61.3843 37.6006 60.4889 37.6006 59.3843V58.5843C37.6006 57.4798 38.496 56.5844 39.6006 56.5844H40.4006C41.5052 56.5844 42.4006 57.4798 42.4006 58.5844V59.3844C42.4006 60.4889 41.5052 61.3843 40.4006 61.3843H39.6006Z" fill="#FC3E24"/>
</g>
</svg>
